<svg height="110" overflow="visible" preserveaspectratio="none" version="1.2" viewBox="0 0 203.5500030517578 203.5500030517578" width="110" xmlns="http://www.w3.org/2000/svg" xmlns:xlink="http://www.w3.org/1999/xlink">
<g transform="translate(1, 1)">
<defs>
<style>
                                        .cls-1_1582290259558 {
                                            fill: #001436;
                                        }

                                        .cls-2_1582290259558 {
                                            fill: #fff;
                                        }
                                    </style>
</defs>
<g id="Layer_2_1582290259558">
<g id="LOGO_EHL_1582290259558">
<circle class="cls-1_1582290259558" cx="100.77" cy="100.77" r="100.77" vector-effect="non-scaling-stroke"></circle>
<polygon class="cls-2_1582290259558" points="120.86 72.4 111.61 81.65 123.52 81.65 132.76 72.4 120.86 72.4" vector-effect="non-scaling-stroke"></polygon>
<polygon class="cls-2_1582290259558" points="89.93 81.65 101.83 81.65 122.22 61.27 110.31 61.27 89.93 81.65" vector-effect="non-scaling-stroke"></polygon>
<polygon class="cls-2_1582290259558" points="100.25 50.02 68.62 81.65 80.53 81.65 112.16 50.02 100.25 50.02" vector-effect="non-scaling-stroke"></polygon>
<path class="cls-2_1582290259558" d="M100.78,36.93c15.72.11,28.77,10.93,32,24.33h7.18a42.77,42.77,0,0,0-78.5,0h7.13C71.78,47.86,85.07,37,100.78,36.93Z" vector-effect="non-scaling-stroke"></path>
<g id="logo_white_stacked_1582290259558">
<path class="cls-2_1582290259558" d="M124.09,92.63h-11.9c2.29,1.32,2.29,3.92,2.29,5.35v13H92.64V98c0-1.43,0-4,2.29-5.35H83C85.32,94,85.32,96.55,85.32,98v30c0,1.44,0,4-2.29,5.35h11.9c-2.29-1.31-2.29-3.91-2.29-5.35V114h21.84v14c0,1.44,0,4-2.29,5.35h11.9c-2.29-1.31-2.29-3.91-2.29-5.35V98c0-1.43,0-4,2.29-5.35" vector-effect="non-scaling-stroke"></path>
<path class="cls-2_1582290259558" d="M51.78,114h15.6v-3H51.78V95.71h21V92.63H42.15C44.44,94,44.44,96.55,44.44,98v30c0,1.44,0,4-2.29,5.35H72.82v-3h-21Z" vector-effect="non-scaling-stroke"></path>
<path class="cls-2_1582290259558" d="M165,130.38H144V98c0-1.44,0-4,2.3-5.36H134.3c2.3,1.32,2.3,3.92,2.3,5.36v30c0,1.43,0,4-2.3,5.35H165Z" vector-effect="non-scaling-stroke"></path>
</g>
</g>
</g>
</g>
</svg>